<svg width="18" height="21" viewBox="0 0 18 21" fill="none" xmlns="http://www.w3.org/2000/svg">
<path d="M17 1V19.2857H3.28571C2.67951 19.2857 2.09812 19.0449 1.66947 18.6162C1.24082 18.1876 1 17.6062 1 17V3.28571C1 2.67951 1.24082 2.09812 1.66947 1.66947C2.09812 1.24082 2.67951 1 3.28571 1H17Z" stroke="currentColor" stroke-width="2" stroke-linecap="round" stroke-linejoin="round"/>
<path d="M17 14.7143H3.28571C2.67951 14.7143 2.09812 14.9551 1.66947 15.3838C1.24082 15.8124 1 16.3938 1 17" stroke="currentColor" stroke-width="2" stroke-linecap="round" stroke-linejoin="round"/>
<path d="M4.87863 8.02607C4.87863 10.1706 6.70148 11.8365 8.82036 11.8365C11.0387 11.8365 12.8367 10.0471 12.8367 7.86135C12.8367 6.58318 12.2182 5.4612 11.3029 4.71139L10.6347 5.86601C11.1871 6.3361 11.5663 7.06182 11.5663 7.87845C11.5663 9.36252 10.3378 10.5832 8.82036 10.5832C7.31142 10.5832 6.08221 9.36252 6.08221 7.83726C6.08221 7.65545 6.09852 7.4744 6.13193 7.30113L4.87863 8.02607ZM10.0573 4.03462C9.67816 3.89398 9.34017 3.83649 9.00217 3.83649C8.74654 3.83649 8.52354 3.86912 8.35882 3.90253L7.50101 5.3866C7.81414 5.20556 8.21818 5.10611 8.65563 5.10611C8.91126 5.10611 9.14203 5.13874 9.38135 5.20479L10.0573 4.03462Z" fill="currentColor" stroke="currentColor" stroke-width="0.1"/>
</svg>
